PathFileType	4	(X/Y/Z)	S:\OneDrive - The University of Tokyo\ìåëÂéˆã∆\ÉoÉCÉÅÉJ\ë™íË\hirabayashi_2\Trimmed\Trimmed_Trimmed_ShSs3-Bar.trc
DataRate	CameraRate	NumFrames	NumMarkers	Units	OrigDataRate	OrigDataStartFrame	OrigNumFrames
200.00	200.00	      9	12	mm	200.00	430	      1718
Frame#	Time	BarR0			BarR50			BarR100			BarR130			BarR180			BarR230			BarL0			BarL50			BarL100			BarL130			BarL180			BarL230			
		X1	Y1	Z1	X2	Y2	Z2	X3	Y3	Z3	X4	Y4	Z4	X5	Y5	Z5	X6	Y6	Z6	X7	Y7	Z7	X8	Y8	Z8	X9	Y9	Z9	X10	Y10	Z10	X11	Y11	Z11	X12	Y12	Z12	

430	2.145	-574.74084	2747.83740	1663.11682	-593.17780	2298.68140	1640.70337	-621.02740	1845.37036	1626.19727	-645.63202	1344.09521	1625.92798	-678.14496	898.55975	1640.91187	-710.07458	451.79779	1662.79736	-1118.09229	2800.76855	1664.15698	-1152.99463	2350.25024	1645.99146	-1189.19226	1901.30823	1632.42542	-1216.48633	1400.68604	1632.21851	-1237.34204	949.64954	1646.16162	-1246.76697	503.65323	1666.54968	
431	2.150	-574.73993	2748.03809	1663.11401	-593.53546	2298.77393	1641.80823	-621.24188	1845.52649	1627.95898	-646.16504	1344.34375	1627.62598	-678.71027	898.56549	1642.32263	-709.99500	451.75034	1663.15015	-1118.20959	2801.14917	1664.20337	-1152.43958	2350.57397	1647.08179	-1188.33044	1901.41602	1634.46619	-1215.69312	1400.87830	1634.20618	-1236.66711	949.28540	1647.53406	-1246.75073	503.59003	1666.57068	
432	2.155	-574.72913	2748.33179	1663.13245	-593.97369	2298.99072	1642.99780	-621.75848	1845.67676	1629.85876	-646.78064	1344.39490	1629.66724	-678.92609	898.76221	1642.96704	-710.02869	451.72403	1663.21985	-1118.61682	2801.51172	1664.19385	-1151.93384	2350.94019	1648.38025	-1187.54712	1901.59583	1636.41956	-1214.95667	1401.31860	1636.16833	-1236.45508	949.60992	1648.54907	-1246.77673	503.56555	1666.60950	
433	2.160	-574.74017	2748.64722	1663.14685	-594.15070	2299.32129	1643.98010	-622.27777	1845.88025	1631.49121	-647.13477	1344.41052	1631.29578	-679.23871	898.79028	1644.24353	-710.08893	451.75070	1663.26868	-1118.35046	2801.87402	1664.08105	-1151.72327	2351.13110	1649.53137	-1186.86243	1901.79456	1638.34741	-1214.32605	1401.27686	1638.02979	-1235.73816	949.89636	1649.57507	-1246.84033	503.57516	1666.60706	
434	2.165	-574.75995	2749.08447	1663.18237	-594.47791	2299.54346	1645.09509	-622.79846	1846.40015	1633.69324	-647.56091	1344.65833	1633.31360	-679.52441	898.87781	1645.39124	-710.35364	451.70529	1663.31201	-1117.20276	2802.26782	1664.70752	-1151.28125	2351.48877	1650.48840	-1186.31360	1902.08545	1640.18311	-1213.88245	1401.24585	1640.05713	-1235.29919	950.00830	1650.62317	-1246.90796	503.62741	1666.65430	
435	2.170	-574.82593	2749.59424	1663.21729	-595.11389	2299.97974	1646.23914	-623.41400	1846.67517	1635.20459	-648.20789	1345.19348	1634.86182	-680.02173	898.99701	1646.63855	-710.18341	451.84540	1663.36975	-1117.07068	2802.52881	1664.71631	-1150.66577	2351.80444	1651.87488	-1185.59753	1902.30664	1642.26392	-1212.93530	1401.43494	1641.88660	-1235.21692	950.15222	1651.95313	-1247.47778	503.81107	1666.58740	
436	2.175	-574.96411	2750.10718	1663.22632	-595.56891	2300.58740	1647.39050	-624.17181	1847.16699	1637.18372	-648.91248	1345.41675	1636.88953	-680.29065	899.35956	1647.74988	-710.26648	452.01898	1663.42358	-1116.95630	2802.93091	1664.73901	-1150.15759	2352.09131	1652.85608	-1184.81934	1902.66687	1643.89551	-1212.14185	1401.56104	1643.90137	-1234.85693	950.38287	1652.27869	-1247.41284	504.12027	1666.50525	
437	2.180	-575.10950	2750.58447	1663.24719	-595.94214	2300.92627	1648.36487	-625.01007	1847.51672	1638.93115	-649.81403	1345.87073	1638.92383	-680.87262	899.62732	1649.03394	-710.43347	452.19672	1663.30994	-1116.77881	2803.37988	1664.76465	-1149.52759	2352.37671	1653.86719	-1184.09668	1903.03052	1645.87964	-1211.45313	1401.91748	1645.43127	-1234.07654	949.97919	1653.11011	-1247.24683	504.06375	1666.38867	
438	2.185	-575.29315	2751.03906	1663.32874	-596.55786	2301.30713	1649.53247	-625.89148	1847.86475	1640.76062	-650.80542	1346.06531	1640.55725	-681.51959	899.99908	1650.17517	-710.29449	452.63760	1663.67871	-1116.59973	2803.86353	1664.78027	-1149.11987	2352.59253	1655.14734	-1183.12268	1903.35291	1647.53882	-1210.66919	1402.21130	1647.41211	-1233.75098	950.54297	1654.64368	-1247.16174	503.63235	1666.28699	
